<svg xmlns="http://www.w3.org/2000/svg"><defs><path d="M917.5 147c.7 0 5.1-.1 6.7-.1 2.6.1 6.4 2 6.5 5.8v14.7c-.3 1 0 4.6-6.2 5.1h-8.2c-61.1 0-59-59.2-59-59.2V7.6c0-3.2 2.6-6 5.8-6H877c3.2 0 6 2.7 6 6v22.2h46.9c3.4 0 5.6 4 5.6 5.8v14.8c-.1 2.6-3 5.3-5.6 5.3H883v56.5c0 .2-1.9 34.9 34.5 34.8m-138.8 19.5c0 3.2-2.8 6-6 6h-13.8c-3.2 0-5.8-2.7-5.8-6V89.2s-2.2-59.2 59-59.2h26.3c6.3.5 5.9 4.1 6.2 5.1v14.7c-.1 3.8-3.9 5.7-6.5 5.8-1.6 0-24.1-.1-24.8-.1-36.3-.1-34.5 34.6-34.5 34.6v76.4zm-323.3-17.6c.7 0 5.1-.1 6.7-.1 2.6.1 6.4 2 6.5 5.8v14.7c-.3 1 0 4.6-6.2 5.1h-8.2c-61.2 0-59-59.2-59-59.2V9.6c0-3.2 2.6-6 5.8-6h13.8c3.2 0 6 2.7 6 6v22.2h46.9c3.4 0 5.6 4 5.6 5.8v14.8c-.1 2.6-3 5.3-5.6 5.3h-46.9v56.5c.2.1-1.7 34.8 34.6 34.7m-282.8-93l45.2-.1c8.2 1 11.1 5.2 11.1 14.9v9.9c-.6 7.3-1.3 14.9-14.9 14.9h-54.5V71c.3-14.2 7.4-14.7 13.1-15.1m66.4 90.7l-64 .1c-14.4 0-15.6-6-15.6-24.6v-.8h54.9c25.2-.1 39.5-15.1 40.3-42.3v-8.2c0-25.6-15.4-40.9-41.3-40.9h-38.4C148.4 30.1 135 44 134 72.5l-.1 49.5c0 25 4.9 50.5 41.3 50.5H239c4.5 0 7.1-2.4 7.1-6.6v-13.6c-.1-2-1-5.6-7.1-5.7m461.1 0l-18.1.3h-22.7c-11.7 0-15.6-3.8-15.6-15.2V71c.2-14.3 7.3-14.7 13-15.1l40.8-.1c14.4 0 15.6 6 15.6 24.5v51.1c-.1 14.3-7.3 14.8-13 15.2m38.7-66.2c0-25-4.9-50.5-41.3-50.5h-38.6C632.4 30.1 619 44 618 72.5v59.2c0 25.6 15.4 40.9 41.3 40.9h38.5c26.5-.2 39.9-14.1 40.9-42.6V80.4zM83.2 146.3l-18.1.1H41.8c-11.8 0-15.7-3.9-15.7-15.3L26 54.6h54.3c14.5 0 15.7 6 15.7 24.8l.1 51.9c-.2 14.2-7.1 14.6-12.9 15M122 79.4c0-25.2-4.9-50.9-41.6-50.9H26V6c0-3.3-2.8-6-6-6H6C2.8 0 0 2.8 0 6v125.1c0 25.8 15.7 41.2 41.8 41.2H81c26.5-.2 39.9-14.1 40.9-42.6V79.4zm220.8 67.2l-44.5.1c-8.9-.8-12-4.9-12-15v-9.9c.6-7.3 1.3-14.9 14.9-14.9h54.5l.2 24.6c-.3 14.3-7.4 14.7-13.1 15.1m38.6-43.7V80.4c0-25-4.9-50.5-41.3-50.5h-63.9c-4.5 0-7.1 2.4-7.1 6.6V50c0 2.1.9 5.7 7 5.8l64-.1c14.4 0 15.6 6 15.6 24.6v.8h-54.9c-25.2.1-39.6 15.1-40.3 42.3v8.2c0 25.6 15.4 40.9 41.3 40.9h22.8l.1.1h15.8c26.5-.2 39.9-14.1 40.9-42.6v-27.1zm193.3 40.6c-2.4 2.3-6.3 3.5-12.2 3.5h-53.9V71.2c0-11.4 4.1-15.4 15.6-15.4h42.7c3.5.5 6.1 1.5 7.8 3.2 3.4 3.5 3.4 9.8 3.3 17.1 0 .4-.1 49.2-.1 50.3.2 7.3.2 13.6-3.2 17.1m29.2-63.6c0-25.9-5-50-41.3-50h-38.3c-25.9 0-41.3 15.4-41.3 41.2l-.2 122.9c0 3.7 1.8 6 4.8 6h15c3.2 0 6-2.8 6-6v-21.6h53.9c36.3 0 41.3-24 41.3-50v-11.2l.1-31.3z" id="logo-type"/><path d="M14.1 99.4l23.7.1c14.4.1 19.8-10 19.8-30.6 0-19.8-6.6-28.6-19.8-28.6H14.1v59.1zM1.5 173V30.1h35c25.5 0 33.8 17.8 33.8 38.4 0 20.3-6.6 40.9-33.9 40.9H14.1V173H1.5zm109.2-79.9h25.4c15.1 0 18.1-13.1 18.1-26.5 0-14.2-3.3-26.4-18.1-26.4h-25.4v52.9zM98.1 173V30.1h38.1c24.8 0 30.6 17.1 30.6 36.9 0 14.6-4.2 28.9-19.9 34.6L169 173h-13.4l-20.8-69.7h-24V173H98.1zm95-41.4V71.7c0-24.2 8.7-43.6 36.4-43.6S266 47.6 266 71.7v59.9c0 24-8.1 43.7-36.4 43.7s-36.5-19.7-36.5-43.7zm60.3 2.8V68.9c0-16.9-5.2-30.6-23.8-30.6S205.7 52 205.7 68.9v65.5c0 16.9 5.2 30.7 23.8 30.7s23.9-13.8 23.9-30.7z" id="logo-pro"/><path d="M148.8 165.2c-10.7-2.4-21.5-5.7-24.1-10.5-1.4-2.7-3.7-5.5-3.4-12.3 14.6-11.9 22.1-20.6 23.3-37.7 3 .1 4.3-.7 6-2.7 3.8-4.4 5.6-31.6.1-32.9-2-.5-3.6 1.1-4.2 1.8 1.6-4.7 2.8-10 3.5-15.7 2.7-21.6-2.8-35.4-12.4-36.6-.2 0-.4.1-.6.1C133.5 7.9 118.1-.1 99.8 0c-20 .1-36.1 9.9-37.5 22.1-5.7 5.5-9.7 12.4-9.7 25.7 0 7.7 1.4 14.8 3.6 20.5 0 .6-.1 1-.1 1.6v.1c0-.9-.7-2.2-2.7-2.5-7.8-1.1-6.7 31.8-1.7 36.1 1.6 1.4 3.6 1.9 5.7 1.6 3.1 15.5 8.8 26 21.1 35.6.6 7.6.7 11.4-2.3 15.1-3.3 4.1-15.3 7.5-25.1 9.3C4.3 173.5 1 200 1 200h197.9c-.1 0-2.7-24-50.1-34.8z" id="icon-user"/><path d="M57 225.5H44a5 5 0 01-5-5V36a5 5 0 015-5h13a5 5 0 015 5v184.5a5 5 0 01-5 5m57.5 0h-13a5 5 0 01-5-5V36a5 5 0 015-5h13a5 5 0 015 5v184.5a5 5 0 01-5 5m79.654-8.17l-49.77-175.38a5.001 5.001 0 013.446-6.175l12.507-3.55a4.999 4.999 0 016.174 3.445l49.77 175.38a5 5 0 01-3.445 6.175l-12.507 3.55a5 5 0 01-6.175-3.446" id="icon-library"/><path d="M78.4 156c-9.7 0-17.5 7.8-17.5 17.4 0 9.7 7.8 17.5 17.5 17.5 9.6 0 17.5-7.8 17.5-17.5 0-9.6-7.9-17.4-17.5-17.4zm91.6 0c-9.6 0-17.5 7.8-17.5 17.4 0 9.7 7.8 17.5 17.5 17.5 9.6 0 17.5-7.8 17.5-17.5 0-9.6-7.9-17.4-17.5-17.4zm30-114H42L31.8 9.1H0l3.4 11.6h12.8l21.2 75.2 9 25.5c4.1 13 16.3 22.4 30.6 22.4h114.6v-18.2H77c-12.6.3-14.1-16.8-14.1-16.8l128.7-16.1L200 42z" id="icon-cart"/><path d="M84.5 175.4c-6.8 0-12.3 5.5-12.3 12.3 0 6.8 5.5 12.3 12.3 12.3 6.8 0 12.3-5.5 12.3-12.3.1-6.8-5.5-12.3-12.3-12.3zm64.6 0c-6.8 0-12.3 5.5-12.3 12.3 0 6.8 5.5 12.3 12.3 12.3 6.8 0 12.3-5.5 12.3-12.3 0-6.8-5.5-12.3-12.3-12.3zM170.2 95H58.9l-7.2-23.2H29.3l2.4 8.2h9.1l15 53 6.3 18c2.9 9.1 11.5 15.8 21.5 15.8h80.8v-12.9H83.6c-8.9.2-9.9-11.8-9.9-11.8l90.7-11.4 5.8-35.7zM146 45.7l-9.3-9.7-20.9 19.9V0h-13.4v55.9L81.5 36l-9.3 9.7 36.9 35zm-9.3-9.7z" id="icon-in-cart"/><path d="M148.7 130.3l-4.1 4.1-13.7-13.4c11-12.8 17.7-29.5 17.7-47.7C148.7 32.8 115.9 0 75.4 0S2.1 32.8 2.1 73.3s32.8 73.3 73.3 73.3c15.6 0 30.1-4.9 42-13.3l14.4 14.2-4 4L177 200l20.9-21.2-49.2-48.5zm-128.2-57c0-30.3 24.6-54.9 54.9-54.9 30.3 0 54.9 24.6 54.9 54.9 0 30.3-24.6 54.9-54.9 54.9-30.3 0-54.9-24.6-54.9-54.9z" id="icon-search"/><path d="M8.8 200V0l182.4 100z" id="icon-play"/><path d="M84.91 11.46c6.46 5.69 12.86 16.91 14 25.54v15c-.04 10.72-6 22.49-14 29.54C80.7 85.25 74.3 89.01 69 90.91c-7.05 2.53-12.68 2.17-20 2.09-6.42-.08-10.17-1.24-16-3.86C9.05 78.37.89 49.1 11 26l-9.98 2v-6.3L7 18.67 23 14l7 24c-8.49 1.44-6.36.05-11-9-3.41 15.1-6.81 24.97 3.61 39C29.57 77.38 40.14 84.13 52 84.79c19.52 1.1 38.19-17.7 38.96-36.79.7-17.31-12.27-34.1-28.96-38.33-5.23-1.33-7.65-1.78-13-.91-2.19.35-8.11 1.96-9.78 1.46C36.29 9.34 35.61 5.56 35 3c17.69-5.79 35.49-4.24 49.91 8.46zM57 36.69L76 48 41 67V29l16 7.69z" id="icon-replay"/><path d="M24.1 0h50.6v200H24.1zm101.2 0h50.6v200h-50.6z" id="icon-pause"/><path fill-rule="evenodd" clip-rule="evenodd" d="M200 3.4L30.3 87V6.8H0v186.4h30.3V113L200 196.6z" id="icon-prev"/><path fill-rule="evenodd" clip-rule="evenodd" d="M169.7 6.8V87L0 3.4v193.2L169.7 113v80.2H200V6.8z" id="icon-next"/><path d="M6.4 59.5v79.1h42.5l80.4 60.4V-1L48.9 59.5H6.4zm141.8-16.1h14.4v111.2h-14.4zm31-22.5h14.4v156.3h-14.4z" id="icon-volume-on"/><path d="M129.9 94l44.9-35.1-10.7-13.6-34.2 26.8V-1L49.5 59.5H7v79.1h37.9L6.4 168.7l10.7 13.6 44.4-34.7 68.4 51.4z" id="icon-volume-off"/><path fill-rule="evenodd" clip-rule="evenodd" d="M200 21.9H55.4v29.2H200V21.9zM55.4 115.2H200V86.4H55.4v28.8zm0 63.7H200v-29H55.4v29zm-26.9-157H0v29.2h28.5V21.9zm0 64.5H0v28.8h28.5V86.4zM0 179.1h28.5v-29H0v29z" id="icon-queue"/><path d="M175.6 116.9v-25h-22.4v25h-24.4v22.6h24.4v25h22.4v-25H200v-22.6h-24.4zm-19.5-78.7H43.3V61h112.8V38.2zM43.3 108.7h61.1V86.2H43.3v22.5zm0 52.1h61.1v-22.6H43.3v22.6zM22.2 38.2H0V61h22.2V38.2zm0 48H0v22.5h22.2V86.2zM0 161h22.3v-22.7H0V161z" id="icon-add-queue" fill-rule="evenodd" clip-rule="evenodd"/><path fill-rule="evenodd" clip-rule="evenodd" d="M124.8 3.8c-37.5 8.7-61.5 29.4-61.5 29.4v113.7c-6.3-2.2-13.7-2.8-21.3-1.2-18.5 3.9-31 19-27.9 33.8 3.1 14.7 20.7 23.5 39.2 19.6 16.4-3.5 28.1-15.8 28.3-28.8h.1V79.4c10.5-7.1 25-15 43.1-19.8 18.1-4.8 32.6-5.3 43.1-4.5v64.3c-6.3-2.2-13.7-2.8-21.3-1.2-18.5 3.9-31 19.1-27.9 33.8 3.1 14.7 20.7 23.5 39.2 19.6 16.1-3.4 27.6-15.3 28.3-28h.1V5.2s-21.2-10.7-61.5-1.4z" id="icon-music"/><path d="M0 44.9h26v26H0zm174 0h26v26h-26zm-43.5 0h26v26h-26zm-43.5 0h26v26H87zm-43.5 0h26v26h-26zM0 87h26v26H0zm174 0h26v26h-26zm-43.5 0h26v26h-26zM87 87h26v26H87zm-43.5 0h26v26h-26zM0 129.2h26v26H0zm174 0h26v26h-26zm-130.5 0h113v26h-113z" id="icon-keyboard"/><path d="M0 74.7h200v50.6H0z" id="icon-minus"/><path d="M200 74.7h-74.7V0H74.7v74.7H0v50.6h74.7V200h50.6v-74.7H200z" id="icon-plus"/><path d="M0 65.2l100 100 100-100-27.5-27.5-72.5 72.6-72.5-72.6L0 65.2z" id="icon-chevron-down"/><path d="M179.6 59.4v5.4c0 54.2-41.2 116.7-116.6 116.7-23.1 0-44.9-5.1-63-16.7 3.2.5 6.4.7 9.8.7 19.1 0 37-8.3 50.9-19.4-17.8-.2-33.1-12.3-38.2-28.5 2.5.5 5.1.8 7.6.8 3.7 0 7.4-.5 10.9-1.5-18.7-3.8-32.9-20.4-32.9-40.3v-.5c5.6 3 11.8 4.9 18.6 5.1-11.1-7.4-18.4-19.9-18.4-34 0-7.6 2.1-13.9 5.6-19.9 20.4 24.8 50.5 40.2 84.5 42.1-.7-2.9-.9-6.2-.9-9.5 0-22.7 18.3-40.9 40.9-40.9 11.8 0 22.5 5.1 30.2 12.9 9.2-1.9 18.1-5.3 25.9-10-3 9.6-9.5 17.7-18.1 22.8 8.4-1 16.2-3.2 23.6-6.5-5.6 8.3-12.5 15.5-20.4 21.2z" id="icon-twitter"/><path d="M100 0C44.8 0 0 44.8 0 100s44.8 100 100 100 100-44.8 100-100S155.2 0 100 0zm63.8 116.5h-47.6v47.6H83.9v-47.6H36.2V84.3h47.6V36.7h32.3v47.6h47.6v32.2z" id="icon-plus-circled"/><path d="M200 118V82h-33.3c-1.6-5.8-3.9-11.3-6.8-16.4l22-22-25.5-25.5-22 22c-5.1-2.9-10.6-5.2-16.4-6.8V0H82v33.3c-5.8 1.6-11.3 3.9-16.4 6.8L45.3 19.8 19.8 45.3l20.3 20.3c-2.9 5.1-5.2 10.6-6.8 16.4H0v36h33.3c1.6 5.8 3.8 11.3 6.8 16.4l-22 22 25.4 25.4 22-22c5.1 2.9 10.6 5.2 16.4 6.8V200h36v-33.3c5.8-1.6 11.3-3.9 16.4-6.8l20.3 20.3 25.5-25.5-20.3-20.3c2.9-5.1 5.2-10.6 6.8-16.4H200zM63.6 100c0-20.1 16.3-36.4 36.4-36.4s36.4 16.3 36.4 36.4-16.3 36.4-36.4 36.4-36.4-16.3-36.4-36.4z" id="icon-settings"/><path d="M200 40.4L159.6 0 100 59.6 40.4 0 0 40.4 59.6 100 0 159.6 40.4 200l59.6-59.6 59.6 59.6 40.4-40.4-59.6-59.6z" id="icon-x"/><path d="M149.7 124.2L200 76.3l-69.7-9.4-29.1-60.7-28.9 60.4L0 76.3l53.2 50.6L41 193.1l60.7-32.7 60.6 32.7z" id="icon-star"/><path d="M26.2 51.8V200h147.6V51.8H26.2zm89.5 48.7H84.3c-4.5 0-8.1-3.6-8.1-8.1s3.6-8.1 8.1-8.1h31.5c4.5 0 8.1 3.6 8.1 8.1s-3.7 8.1-8.2 8.1zM47.5 25.8h105v13.7h-105zM65.5 0h69v13.7h-69z" id="icon-holdbin"/><path d="M2.8 0h194.4L100 200z" id="icon-pointer-down"/><path d="M0 0h4.8v4.8H0zm7.5 0h4.8v4.8H7.5zm7.6 0h4.8v4.8h-4.8zM0 14.9h4.8v4.8H0zm7.5 0h4.8v4.8H7.5zm7.6 0h4.8v4.8h-4.8zm0-7.5h4.8v4.8h-4.8zM0 7.4h4.8v4.8H0zm7.5 0h4.8v4.8H7.5z" id="universal-nav-icon" fill-rule="evenodd" clip-rule="evenodd" fill="#FFF"/><g id="logo-headphones"><path d="M172.6 99.6c0-40-32.6-72.6-72.6-72.6-40 0-72.6 32.6-72.6 72.6 0 18.5 7 36.2 19.7 49.7 1.7 1.8 4.5 1.9 6.4.2l7.8-7.4c1.8-1.7 1.9-4.5.2-6.3-9.2-9.8-14.3-22.7-14.3-36.1 0-29.1 23.7-52.8 52.8-52.8 29.1 0 52.8 23.7 52.8 52.8 0 13.5-5.1 26.3-14.3 36.1-1.7 1.8-1.6 4.6.2 6.3l7.8 7.4c1.8 1.7 4.7 1.6 6.4-.2 12.7-13.6 19.7-31.2 19.7-49.7"/><path d="M200 99.2c0-9.9-1.5-19.6-4.4-29-.8-2.3-3.3-3.6-5.6-2.9l-10.3 3.2c-2.4.7-3.7 3.2-3 5.6 2.3 7.5 3.5 15.2 3.5 23.1 0 14-3.8 27.6-10.9 39.6-1.3 2.1-.6 4.9 1.6 6.1l9.2 5.5c2.1 1.3 4.9.6 6.2-1.5 9-14.9 13.7-32.1 13.7-49.7M30.7 138.8a77.35 77.35 0 01-10.9-39.6c0-7.9 1.2-15.7 3.5-23.1.7-2.4-.6-4.9-3-5.6L10 67.3c-2.4-.7-4.9.6-5.6 2.9C1.5 79.6 0 89.3 0 99.2 0 116.8 4.8 134 13.7 149c1.3 2.1 4 2.8 6.2 1.5l9.2-5.5c2.1-1.3 2.8-4.1 1.6-6.2z"/></g><g id="icon-my-beatport" fill-rule="evenodd" clip-rule="evenodd"><path d="M170.8 111.3c0-39-31.8-70.8-70.8-70.8s-70.8 31.8-70.8 70.8c0 18.1 6.8 35.3 19.2 48.4 1.7 1.8 4.4 1.8 6.2.2l7.6-7.2c1.8-1.7 1.8-4.4.2-6.2-9-9.6-14-22.1-14-35.3 0-28.4 23.1-51.5 51.5-51.5s51.5 23.1 51.5 51.5c0 13.1-5 25.7-14 35.3-1.6 1.8-1.5 4.5.2 6.2l7.6 7.2c1.8 1.7 4.5 1.6 6.2-.2 12.6-13.2 19.4-30.4 19.4-48.4zm24.9-28.7c-.8-2.3-3.2-3.6-5.5-2.9l-10 3.1c-2.3.7-3.6 3.2-2.9 5.5 2.3 7.3 3.4 14.9 3.4 22.6 0 13.6-3.7 27-10.6 38.6-1.2 2.1-.6 4.8 1.5 6l9 5.4c2.1 1.2 4.8.6 6-1.5 8.8-14.6 13.4-31.4 13.4-48.5 0-9.6-1.5-19.2-4.3-28.3zM29.9 149.5c-7-11.6-10.6-25-10.6-38.6 0-7.7 1.2-15.3 3.4-22.6.7-2.3-.6-4.8-2.9-5.5l-10-3.1c-2.3-.7-4.8.6-5.5 2.9C1.4 91.7 0 101.2 0 110.9c0 17.1 4.6 33.9 13.4 48.5 1.3 2.1 3.9 2.7 6 1.5l9-5.4c2-1.2 2.7-3.9 1.5-6z"/><path d="M100 98.1c-17.3-20-34.1-5.8-34.7 7.7-.6 14.6 24.7 35.2 33.8 42.8.2.2.6.2.8.3.3 0 .6-.1.8-.3 9.1-7.6 34.4-28.2 33.8-42.8-.4-13.5-17.2-27.7-34.5-7.7z"/></g><g id="icon-menu" fill-rule="evenodd" clip-rule="evenodd"><path d="M0 8.5h200v34H0z"/><path d="M200 8.5H0v34h200v-34zM0 117h200V83.4H0V117zm0 74.5h200v-33.8H0v33.8z"/></g><g id="icon-share"><path d="M129.6 73.1v15.8l28.1-.1v95.4H42.3V90h28.4V74.2H26.5V200h147V73.1zM67.7 52.6z"/><path d="M92.1 29.4v114.1h15.8V29.1l24.7 23.5 10.9-11.4L100.1 0 56.8 41.1l10.9 11.5z"/></g><g id="icon-facebook"><path id="f" d="M116.2 200v-91.1h31.1l4.4-35.6h-35.6V51.1c0-11.1 2.2-17.8 17.8-17.8h18.9V1.1C149.5 1.1 137.3 0 125 0 97.3 0 79.5 16.7 79.5 46.7v26.7H48.4V109h31.1v91h36.7z"/></g><g id="icon-move"><path d="M162.5.1h-33.1V16h33.1v167.6h-33.1v15.8h69V.1h-35.9z"/><path d="M89.4 56.2L77.9 67.1l23.5 24.7H1.6v15.9h99.8l-23.5 24.7 11.5 10.9 41.4-43.5zM77.9 67.1z"/></g><g id="icon-spinner"><path opacity=".25" d="M145.6 87.5H200v20h-54.4z"/><path d="M0 87.5h54.4v20H0z"/><path opacity=".75" d="M90 145.6h20V200H90z"/><path d="M90 0h20v54.4H90z"/><path transform="rotate(-134.999 152.367 149.716)" opacity=".5" d="M125.2 139.7h54.4v20h-54.4z"/><path transform="rotate(-134.999 49.401 46.75)" d="M22.2 36.7h54.4v20H22.2z"/><path transform="rotate(-45.001 47.632 151.484)" d="M20.4 141.5h54.4v20H20.4z"/></g></defs></svg>